#N canvas 297 23 1084 619 10;
#X obj 20 126 unpackOSC;
#X obj 107 18 loadbang;
#X msg 147 91 devices;
#X obj 20 147 routeOSC /note;
#X floatatom 20 189 5 0 0 0 - - -;
#X floatatom 77 189 5 0 0 0 - - -;
#X floatatom 135 189 5 0 0 0 - - -;
#X obj 20 105 o.io.slipserial;
#X msg 20 52 devicename /dev/tty.HC-06-DevB \, baud 57600 \, pollintervall
1 \, verbose 1;
#X msg 215 108 close;
#X obj 20 209 pack f f f;
#X obj 20 230 s NOTE;
#X obj 20 168 routeOSC /pitch /velocity /onoff /oncnt;
#X floatatom 193 189 5 0 0 0 - - -;
#X obj 25 583 o.io.slipserial;
#X msg 54 532 devices;
#X msg 131 557 close;
#X text 21 412 NOTE! -->;
#X obj 84 404 cnv 15 100 60 empty empty empty 20 12 0 14 -261234 -66577
0;
#X msg 91 427 /note 60 100 1;
#X text 90 407 well.. if we do like..;
#X text 90 447 w/o bundling.. why not?;
#X obj 422 157 t a b;
#X msg 504 312 [;
#X obj 25 506 packOSC;
#X msg 287 178 ];
#X obj 287 157 t b a;
#X obj 317 109 r NOTE;
#X msg 338 228 /note/velocity \$1;
#X msg 314 207 /note/pitch \$1;
#X obj 380 471 s OSC;
#X obj 25 481 r OSC;
#X obj 86 245 tgl 125 0 empty empty empty 17 7 0 10 -262144 -1 -1 0
1;
#N canvas 0 23 255 233 midi-in 0;
#X obj 17 14 notein 1;
#X floatatom 17 35 5 0 0 0 - - -;
#X floatatom 55 35 5 0 0 0 - - -;
#X obj 55 55 t a a;
#X floatatom 17 113 5 0 0 0 - - -;
#X floatatom 55 113 5 0 0 0 - - -;
#X floatatom 89 113 5 0 0 0 - - -;
#X obj 17 133 pack f f f;
#X obj 17 154 s NOTE;
#X obj 89 76 != 0;
#X obj 89 154 outlet;
#X connect 0 0 1 0;
#X connect 0 1 2 0;
#X connect 1 0 4 0;
#X connect 2 0 3 0;
#X connect 3 0 5 0;
#X connect 3 1 9 0;
#X connect 4 0 7 0;
#X connect 5 0 7 1;
#X connect 6 0 7 2;
#X connect 6 0 10 0;
#X connect 7 0 8 0;
#X connect 9 0 6 0;
#X restore 156 222 pd midi-in;
#X obj 177 586 print;
#X obj 235 572 r NOTE;
#X obj 805 562 s NOTE;
#X obj 805 516 metro 1000;
#X obj 805 494 tgl 15 0 empty empty empty 17 7 0 10 -262144 -1 -1 0
1;
#X text 804 464 auto play;
#X floatatom 578 369 5 0 0 0 - - -;
#X obj 553 153 loadbang;
#X msg 553 178 127;
#X text 610 201 vol. override;
#X msg 635 355 0;
#X msg 635 334 10;
#X msg 635 313 25;
#X msg 635 292 50;
#X msg 635 251 255;
#X msg 635 231 500;
#X msg 635 271 127;
#X text 660 231 BIG;
#X text 661 355 SMALL;
#X msg 638 180 180;
#X msg 668 518 100 100 1;
#X msg 670 573 101 100 1;
#X text 679 497 gastank;
#X text 674 548 float;
#X msg 847 444 0;
#X msg 889 466 1000;
#X obj 947 557 s NOTE;
#X obj 947 511 metro 1000;
#X obj 947 489 tgl 15 0 empty empty empty 17 7 0 10 -262144 -1 -1 0
1;
#X floatatom 1026 496 5 0 0 0 - - -;
#X text 946 459 auto play;
#X msg 989 439 0;
#X msg 1031 461 1000;
#X msg 947 533 101 127 1;
#X msg 805 538 100 127 1;
#X msg 884 437 500;
#X msg 920 435 2000;
#X msg 908 411 300;
#X msg 938 391 3000;
#X obj 788 390 s NOTE;
#X obj 866 216 tgl 15 0 empty empty empty 17 7 0 10 -262144 -1 -1 0
1;
#X obj 911 168 tgl 15 0 empty empty empty 17 7 0 10 -262144 -1 -1 0
1;
#X obj 921 116 tgl 15 0 empty empty empty 17 7 0 10 -262144 -1 -1 0
1;
#X obj 804 147 tgl 15 0 empty empty empty 17 7 0 10 -262144 -1 -1 0
1;
#X obj 931 168 tgl 15 0 empty empty empty 17 7 0 10 -262144 -1 -1 0
1;
#X obj 774 45 tgl 15 0 empty empty empty 17 7 0 10 -262144 -1 -1 0
1;
#X obj 804 25 tgl 15 0 empty empty empty 17 7 0 10 -262144 -1 -1 0
1;
#X msg 968 75 1;
#X msg 968 95 0;
#X obj 750 48 tgl 15 0 empty empty empty 17 7 0 10 -262144 -1 -1 0
1;
#X msg 970 167 1;
#X msg 112 525 devicename /dev/cu.usbmodem48710501 \, baud 57600 \,
pollintervall 1 \, verbose 1;
#X text 363 108 /pitch /velocity /onoff /offset /loop /interval;
#X obj 317 130 unpack f f f f f f;
#X msg 422 442 /timing/interval \$1;
#X msg 359 249 /note/onoff \$1;
#X msg 380 400 /timing/offset \$1;
#X msg 401 421 /timing/loop \$1;
#X floatatom 380 340 5 0 0 0 - - -;
#X floatatom 401 360 5 0 0 0 - - -;
#X floatatom 422 380 5 0 0 0 - - -;
#X obj 380 314 bng 15 250 50 0 empty empty empty 17 7 0 10 -262144
-1 -1;
#X obj 401 314 bng 15 250 50 0 empty empty empty 17 7 0 10 -262144
-1 -1;
#X obj 422 314 bng 15 250 50 0 empty empty empty 17 7 0 10 -262144
-1 -1;
#X msg 804 49 84 5 \$1 0 0 0;
#X msg 774 69 72 25 \$1 0 0 0;
#X msg 763 91 74 35 \$1 0 0 0;
#X msg 804 171 64 25 \$1 0 0 0;
#X msg 866 240 61 50 \$1 0 0 0;
#X msg 921 212 47 25 \$1 0 0 0;
#X msg 911 192 48 25 \$1 0 0 0;
#X msg 921 140 65 25 \$1 0 0 0;
#X msg 870 135 0;
#X connect 0 0 3 0;
#X connect 2 0 7 1;
#X connect 3 0 12 0;
#X connect 4 0 10 0;
#X connect 5 0 10 1;
#X connect 6 0 10 2;
#X connect 6 0 32 0;
#X connect 7 0 0 0;
#X connect 8 0 7 1;
#X connect 9 0 7 1;
#X connect 10 0 11 0;
#X connect 12 0 4 0;
#X connect 12 1 5 0;
#X connect 12 2 6 0;
#X connect 12 3 13 0;
#X connect 15 0 14 1;
#X connect 16 0 14 1;
#X connect 22 0 97 0;
#X connect 22 1 23 0;
#X connect 23 0 30 0;
#X connect 24 0 14 0;
#X connect 25 0 30 0;
#X connect 26 0 25 0;
#X connect 26 1 29 0;
#X connect 27 0 87 0;
#X connect 28 0 30 0;
#X connect 29 0 30 0;
#X connect 31 0 24 0;
#X connect 33 0 32 0;
#X connect 35 0 34 0;
#X connect 37 0 68 0;
#X connect 38 0 37 0;
#X connect 41 0 42 0;
#X connect 42 0 40 0;
#X connect 44 0 40 0;
#X connect 45 0 40 0;
#X connect 46 0 40 0;
#X connect 47 0 40 0;
#X connect 48 0 40 0;
#X connect 49 0 40 0;
#X connect 50 0 40 0;
#X connect 53 0 40 0;
#X connect 54 0 36 0;
#X connect 55 0 36 0;
#X connect 58 0 37 0;
#X connect 59 0 37 1;
#X connect 61 0 67 0;
#X connect 62 0 61 0;
#X connect 63 0 61 1;
#X connect 65 0 61 0;
#X connect 66 0 61 1;
#X connect 67 0 60 0;
#X connect 68 0 36 0;
#X connect 69 0 37 1;
#X connect 70 0 37 1;
#X connect 71 0 37 1;
#X connect 72 0 37 1;
#X connect 74 0 102 0;
#X connect 75 0 104 0;
#X connect 76 0 105 0;
#X connect 77 0 101 0;
#X connect 78 0 103 0;
#X connect 79 0 99 0;
#X connect 80 0 98 0;
#X connect 81 0 76 0;
#X connect 82 0 76 0;
#X connect 83 0 100 0;
#X connect 84 0 103 0;
#X connect 85 0 14 1;
#X connect 87 0 26 0;
#X connect 87 1 28 0;
#X connect 87 2 89 0;
#X connect 87 3 95 0;
#X connect 87 4 96 0;
#X connect 87 5 22 0;
#X connect 88 0 30 0;
#X connect 89 0 30 0;
#X connect 90 0 30 0;
#X connect 91 0 30 0;
#X connect 92 0 90 0;
#X connect 93 0 91 0;
#X connect 94 0 88 0;
#X connect 95 0 92 0;
#X connect 96 0 93 0;
#X connect 97 0 94 0;
#X connect 98 0 73 0;
#X connect 99 0 73 0;
#X connect 100 0 73 0;
#X connect 101 0 73 0;
#X connect 102 0 73 0;
#X connect 103 0 73 0;
#X connect 104 0 73 0;
#X connect 105 0 73 0;
#X connect 106 0 74 0;
