#N canvas 534 35 783 619 10;
#X obj 20 126 unpackOSC;
#X obj 107 18 loadbang;
#X msg 147 91 devices;
#X obj 20 147 routeOSC /note;
#X floatatom 20 189 5 0 0 0 - - -;
#X floatatom 77 189 5 0 0 0 - - -;
#X floatatom 135 189 5 0 0 0 - - -;
#X obj 20 105 o.io.slipserial;
#X msg 20 52 devicename /dev/tty.HC-06-DevB \, baud 57600 \, pollintervall
1 \, verbose 1;
#X msg 215 108 close;
#X obj 20 209 pack f f f;
#X obj 20 230 s NOTE;
#X obj 20 168 routeOSC /pitch /velocity /onoff /oncnt;
#X floatatom 193 189 5 0 0 0 - - -;
#X obj 22 475 o.io.slipserial;
#X msg 51 424 devices;
#X msg 128 429 close;
#X obj 433 134 tgl 15 0 empty empty empty 17 7 0 10 -262144 -1 -1 0
1;
#X msg 109 387 devicename /dev/tty.usbmodem44719701 \, baud 57600 \,
pollintervall 1 \, verbose 1;
#X text 352 290 NOTE! -->;
#X obj 415 282 cnv 15 100 60 empty empty empty 20 12 0 14 -261234 -66577
0;
#X msg 422 305 /note 60 100 1;
#X text 421 285 well.. if we do like..;
#X text 421 325 w/o bundling.. why not?;
#X obj 386 157 t a b;
#X msg 413 178 [;
#X obj 22 398 packOSC;
#X msg 317 178 ];
#X obj 317 157 t b a;
#X obj 317 109 r NOTE;
#X obj 317 130 unpack f f f;
#X text 363 108 /pitch /velocity /onoff;
#X msg 351 224 /note/velocity \$1;
#X msg 344 245 /note/pitch \$1;
#X obj 278 214 s OSC;
#X obj 22 373 r OSC;
#X obj 86 245 tgl 125 0 empty empty empty 17 7 0 10 -262144 -1 -1 0
1;
#N canvas 0 23 255 233 midi-in 0;
#X obj 17 14 notein 1;
#X floatatom 17 35 5 0 0 0 - - -;
#X floatatom 55 35 5 0 0 0 - - -;
#X obj 55 55 t a a;
#X floatatom 17 113 5 0 0 0 - - -;
#X floatatom 55 113 5 0 0 0 - - -;
#X floatatom 89 113 5 0 0 0 - - -;
#X obj 17 133 pack f f f;
#X obj 17 154 s NOTE;
#X obj 89 76 != 0;
#X obj 89 154 outlet;
#X connect 0 0 1 0;
#X connect 0 1 2 0;
#X connect 1 0 4 0;
#X connect 2 0 3 0;
#X connect 3 0 5 0;
#X connect 3 1 9 0;
#X connect 4 0 7 0;
#X connect 5 0 7 1;
#X connect 6 0 7 2;
#X connect 6 0 10 0;
#X connect 7 0 8 0;
#X connect 9 0 6 0;
#X restore 156 222 pd midi-in;
#X obj 174 478 print;
#X obj 232 464 r NOTE;
#X msg 386 203 /note/onoff \$1;
#X obj 476 492 s NOTE;
#X obj 476 446 metro 1000;
#X obj 476 424 tgl 15 0 empty empty empty 17 7 0 10 -262144 -1 -1 0
1;
#X text 475 394 auto play;
#X floatatom 351 178 5 0 0 0 - - -;
#X obj 466 25 loadbang;
#X msg 466 50 127;
#X text 523 73 vol. override;
#X obj 355 152 bng 15 250 50 0 empty empty empty 17 7 0 10 -262144
-1 -1;
#X msg 548 227 0;
#X msg 548 206 10;
#X msg 548 185 25;
#X msg 548 164 50;
#X msg 548 123 255;
#X msg 548 103 500;
#X msg 548 143 127;
#X text 573 103 BIG;
#X text 574 227 SMALL;
#X msg 551 52 180;
#X msg 339 448 100 100 1;
#X msg 341 503 101 100 1;
#X text 350 427 gastank;
#X text 345 478 float;
#X msg 518 374 0;
#X msg 560 396 1000;
#X obj 618 487 s NOTE;
#X obj 618 441 metro 1000;
#X obj 618 419 tgl 15 0 empty empty empty 17 7 0 10 -262144 -1 -1 0
1;
#X floatatom 697 426 5 0 0 0 - - -;
#X text 617 389 auto play;
#X msg 660 369 0;
#X msg 702 391 1000;
#X msg 618 463 101 127 1;
#X msg 476 468 100 127 1;
#X msg 555 367 500;
#X msg 591 365 2000;
#X msg 579 341 300;
#X msg 609 321 3000;
#X connect 0 0 3 0;
#X connect 2 0 7 1;
#X connect 3 0 12 0;
#X connect 4 0 10 0;
#X connect 5 0 10 1;
#X connect 6 0 10 2;
#X connect 6 0 36 0;
#X connect 7 0 0 0;
#X connect 8 0 7 1;
#X connect 9 0 7 1;
#X connect 10 0 11 0;
#X connect 12 0 4 0;
#X connect 12 1 5 0;
#X connect 12 2 6 0;
#X connect 12 3 13 0;
#X connect 15 0 14 1;
#X connect 16 0 14 1;
#X connect 18 0 14 1;
#X connect 24 0 17 0;
#X connect 24 0 40 0;
#X connect 24 1 25 0;
#X connect 25 0 34 0;
#X connect 26 0 14 0;
#X connect 27 0 34 0;
#X connect 28 0 27 0;
#X connect 28 1 33 0;
#X connect 29 0 30 0;
#X connect 30 0 28 0;
#X connect 30 1 49 0;
#X connect 30 2 24 0;
#X connect 32 0 34 0;
#X connect 33 0 34 0;
#X connect 35 0 26 0;
#X connect 37 0 36 0;
#X connect 39 0 38 0;
#X connect 40 0 34 0;
#X connect 42 0 74 0;
#X connect 43 0 42 0;
#X connect 45 0 32 0;
#X connect 46 0 47 0;
#X connect 47 0 45 0;
#X connect 49 0 45 0;
#X connect 50 0 45 0;
#X connect 51 0 45 0;
#X connect 52 0 45 0;
#X connect 53 0 45 0;
#X connect 54 0 45 0;
#X connect 55 0 45 0;
#X connect 56 0 45 0;
#X connect 59 0 45 0;
#X connect 60 0 41 0;
#X connect 61 0 41 0;
#X connect 64 0 42 0;
#X connect 65 0 42 1;
#X connect 67 0 73 0;
#X connect 68 0 67 0;
#X connect 69 0 67 1;
#X connect 71 0 67 0;
#X connect 72 0 67 1;
#X connect 73 0 66 0;
#X connect 74 0 41 0;
#X connect 75 0 42 1;
#X connect 76 0 42 1;
#X connect 77 0 42 1;
#X connect 78 0 42 1;
